<mxfile host="app.diagrams.net" modified="2024-04-07T23:22:00.888Z" agent="Mozilla/5.0 (Windows NT 10.0; Win64; x64) AppleWebKit/537.36 (KHTML, like Gecko) Chrome/123.0.0.0 Safari/537.36" etag="84uVdZYX4lhdvpd8FEIL" version="24.0.7" type="device">
  <diagram name="Page-1" id="h9AfyoV21cmzuZupINzt">
    <mxGraphModel dx="1728" dy="950" grid="1" gridSize="10" guides="1" tooltips="1" connect="1" arrows="1" fold="1" page="1" pageScale="1" pageWidth="827" pageHeight="1169" math="0" shadow="0">
      <root>
        <mxCell id="0" />
        <mxCell id="1" parent="0" />
        <mxCell id="qbVCxpg8kqREcViFkMym-1" value="" style="shape=datastore;whiteSpace=wrap;html=1;" vertex="1" parent="1">
          <mxGeometry x="610" y="100" width="60" height="60" as="geometry" />
        </mxCell>
        <mxCell id="qbVCxpg8kqREcViFkMym-2" value="" style="image;aspect=fixed;html=1;points=[];align=center;fontSize=12;image=img/lib/azure2/other/Defender_Industrial_Scale_System.svg;" vertex="1" parent="1">
          <mxGeometry x="210" y="181" width="114" height="114" as="geometry" />
        </mxCell>
        <mxCell id="qbVCxpg8kqREcViFkMym-3" value="desktop" style="sketch=0;outlineConnect=0;gradientColor=none;fontColor=#545B64;strokeColor=none;fillColor=#879196;dashed=0;verticalLabelPosition=bottom;verticalAlign=top;align=center;html=1;fontSize=12;fontStyle=0;aspect=fixed;shape=mxgraph.aws4.illustration_desktop;pointerEvents=1" vertex="1" parent="1">
          <mxGeometry x="400" y="125" width="100" height="91" as="geometry" />
        </mxCell>
        <mxCell id="qbVCxpg8kqREcViFkMym-4" value="" style="shape=mxgraph.cisco.computers_and_peripherals.scanner;html=1;pointerEvents=1;dashed=0;fillColor=#036897;strokeColor=#ffffff;strokeWidth=2;verticalLabelPosition=bottom;verticalAlign=top;align=center;outlineConnect=0;" vertex="1" parent="1">
          <mxGeometry x="210" y="50" width="80" height="75" as="geometry" />
        </mxCell>
        <mxCell id="qbVCxpg8kqREcViFkMym-5" value="" style="shape=flexArrow;endArrow=classic;startArrow=classic;html=1;rounded=0;" edge="1" parent="1">
          <mxGeometry width="100" height="100" relative="1" as="geometry">
            <mxPoint x="310" y="100" as="sourcePoint" />
            <mxPoint x="380" y="100" as="targetPoint" />
          </mxGeometry>
        </mxCell>
        <mxCell id="qbVCxpg8kqREcViFkMym-6" value="" style="shape=flexArrow;endArrow=classic;startArrow=classic;html=1;rounded=0;" edge="1" parent="1">
          <mxGeometry width="100" height="100" relative="1" as="geometry">
            <mxPoint x="310" y="190" as="sourcePoint" />
            <mxPoint x="380" y="190" as="targetPoint" />
          </mxGeometry>
        </mxCell>
        <mxCell id="qbVCxpg8kqREcViFkMym-7" value="Scale" style="text;html=1;align=center;verticalAlign=middle;resizable=0;points=[];autosize=1;strokeColor=none;fillColor=none;" vertex="1" parent="1">
          <mxGeometry x="125" y="230" width="50" height="30" as="geometry" />
        </mxCell>
        <mxCell id="qbVCxpg8kqREcViFkMym-8" value="RFID Scanner" style="text;html=1;align=center;verticalAlign=middle;resizable=0;points=[];autosize=1;strokeColor=none;fillColor=none;" vertex="1" parent="1">
          <mxGeometry x="100" y="78" width="100" height="30" as="geometry" />
        </mxCell>
        <mxCell id="qbVCxpg8kqREcViFkMym-9" value="Desktop (NUC)&lt;div&gt;&amp;nbsp;running scale-app&lt;/div&gt;" style="text;html=1;align=center;verticalAlign=middle;resizable=0;points=[];autosize=1;strokeColor=none;fillColor=none;" vertex="1" parent="1">
          <mxGeometry x="400" y="60" width="120" height="40" as="geometry" />
        </mxCell>
        <mxCell id="qbVCxpg8kqREcViFkMym-10" value="USB" style="text;html=1;align=center;verticalAlign=middle;resizable=0;points=[];autosize=1;strokeColor=none;fillColor=none;" vertex="1" parent="1">
          <mxGeometry x="324" y="50" width="50" height="30" as="geometry" />
        </mxCell>
        <mxCell id="qbVCxpg8kqREcViFkMym-11" value="USB-Serial" style="text;html=1;align=center;verticalAlign=middle;resizable=0;points=[];autosize=1;strokeColor=none;fillColor=none;" vertex="1" parent="1">
          <mxGeometry x="309" y="216" width="80" height="30" as="geometry" />
        </mxCell>
        <mxCell id="qbVCxpg8kqREcViFkMym-12" value="" style="shape=mxgraph.signs.tech.ethernet;html=1;pointerEvents=1;fillColor=#000000;strokeColor=none;verticalLabelPosition=bottom;verticalAlign=top;align=center;" vertex="1" parent="1">
          <mxGeometry x="515" y="157" width="60" height="24" as="geometry" />
        </mxCell>
        <mxCell id="qbVCxpg8kqREcViFkMym-13" value="Lab Database" style="text;html=1;align=center;verticalAlign=middle;resizable=0;points=[];autosize=1;strokeColor=none;fillColor=none;" vertex="1" parent="1">
          <mxGeometry x="590" y="60" width="100" height="30" as="geometry" />
        </mxCell>
        <mxCell id="qbVCxpg8kqREcViFkMym-14" value="&lt;ul&gt;&lt;li style=&quot;text-align: left;&quot;&gt;Select Experimenter&lt;/li&gt;&lt;li style=&quot;text-align: left;&quot;&gt;Read RFID from Animal&lt;/li&gt;&lt;li style=&quot;text-align: left;&quot;&gt;Read Mass Reading from scale&lt;/li&gt;&lt;li style=&quot;text-align: left;&quot;&gt;Upload to database in real time&lt;/li&gt;&lt;li style=&quot;text-align: left;&quot;&gt;Trigger session start in real time&lt;/li&gt;&lt;/ul&gt;&lt;div&gt;&lt;br&gt;&lt;/div&gt;" style="text;html=1;align=center;verticalAlign=middle;resizable=0;points=[];autosize=1;strokeColor=none;fillColor=none;" vertex="1" parent="1">
          <mxGeometry x="345" y="240" width="230" height="120" as="geometry" />
        </mxCell>
        <mxCell id="qbVCxpg8kqREcViFkMym-15" value="" style="shape=message;html=1;html=1;outlineConnect=0;labelPosition=center;verticalLabelPosition=bottom;align=center;verticalAlign=top;" vertex="1" parent="1">
          <mxGeometry x="610" y="206" width="60" height="40" as="geometry" />
        </mxCell>
        <mxCell id="qbVCxpg8kqREcViFkMym-16" value="Start Training Session" style="text;html=1;align=center;verticalAlign=middle;resizable=0;points=[];autosize=1;strokeColor=none;fillColor=none;" vertex="1" parent="1">
          <mxGeometry x="570" y="176" width="140" height="30" as="geometry" />
        </mxCell>
        <mxCell id="qbVCxpg8kqREcViFkMym-46" style="edgeStyle=orthogonalEdgeStyle;rounded=0;orthogonalLoop=1;jettySize=auto;html=1;entryX=0.5;entryY=0;entryDx=0;entryDy=0;" edge="1" parent="1" source="qbVCxpg8kqREcViFkMym-17" target="qbVCxpg8kqREcViFkMym-45">
          <mxGeometry relative="1" as="geometry" />
        </mxCell>
        <mxCell id="qbVCxpg8kqREcViFkMym-17" value="Initlization&lt;div&gt;select exper&lt;/div&gt;&lt;div&gt;connect serial port with scale&lt;/div&gt;" style="shape=parallelogram;perimeter=parallelogramPerimeter;whiteSpace=wrap;html=1;fixedSize=1;" vertex="1" parent="1">
          <mxGeometry x="159" y="350" width="210" height="70" as="geometry" />
        </mxCell>
        <mxCell id="qbVCxpg8kqREcViFkMym-18" value="RFID scanner input" style="rounded=0;whiteSpace=wrap;html=1;" vertex="1" parent="1">
          <mxGeometry x="205" y="540" width="120" height="60" as="geometry" />
        </mxCell>
        <mxCell id="qbVCxpg8kqREcViFkMym-49" style="edgeStyle=orthogonalEdgeStyle;rounded=0;orthogonalLoop=1;jettySize=auto;html=1;entryX=0.5;entryY=0;entryDx=0;entryDy=0;" edge="1" parent="1" source="qbVCxpg8kqREcViFkMym-19" target="qbVCxpg8kqREcViFkMym-20">
          <mxGeometry relative="1" as="geometry">
            <mxPoint x="350" y="910" as="targetPoint" />
            <Array as="points">
              <mxPoint x="350" y="1050" />
              <mxPoint x="350" y="910" />
            </Array>
          </mxGeometry>
        </mxCell>
        <mxCell id="qbVCxpg8kqREcViFkMym-19" value="re-read from scale" style="rounded=0;whiteSpace=wrap;html=1;" vertex="1" parent="1">
          <mxGeometry x="205" y="1020" width="120" height="60" as="geometry" />
        </mxCell>
        <mxCell id="qbVCxpg8kqREcViFkMym-55" style="edgeStyle=orthogonalEdgeStyle;rounded=0;orthogonalLoop=1;jettySize=auto;html=1;entryX=1;entryY=0.5;entryDx=0;entryDy=0;" edge="1" parent="1" source="qbVCxpg8kqREcViFkMym-20" target="qbVCxpg8kqREcViFkMym-28">
          <mxGeometry relative="1" as="geometry">
            <Array as="points">
              <mxPoint x="360" y="950" />
              <mxPoint x="360" y="770" />
            </Array>
          </mxGeometry>
        </mxCell>
        <mxCell id="qbVCxpg8kqREcViFkMym-56" value="Timeout" style="edgeLabel;html=1;align=center;verticalAlign=middle;resizable=0;points=[];" vertex="1" connectable="0" parent="qbVCxpg8kqREcViFkMym-55">
          <mxGeometry x="-0.9161" y="2" relative="1" as="geometry">
            <mxPoint x="31" y="-188" as="offset" />
          </mxGeometry>
        </mxCell>
        <mxCell id="qbVCxpg8kqREcViFkMym-20" value="stable scale reading?" style="rhombus;whiteSpace=wrap;html=1;" vertex="1" parent="1">
          <mxGeometry x="198.5" y="910" width="133" height="80" as="geometry" />
        </mxCell>
        <mxCell id="qbVCxpg8kqREcViFkMym-63" style="edgeStyle=orthogonalEdgeStyle;rounded=0;orthogonalLoop=1;jettySize=auto;html=1;entryX=1;entryY=0.5;entryDx=0;entryDy=0;" edge="1" parent="1" source="qbVCxpg8kqREcViFkMym-22" target="qbVCxpg8kqREcViFkMym-45">
          <mxGeometry relative="1" as="geometry">
            <Array as="points">
              <mxPoint x="740" y="1050" />
              <mxPoint x="740" y="480" />
            </Array>
          </mxGeometry>
        </mxCell>
        <mxCell id="qbVCxpg8kqREcViFkMym-22" value="Upload weight&lt;div&gt;Trigger Session&lt;/div&gt;" style="shape=parallelogram;perimeter=parallelogramPerimeter;whiteSpace=wrap;html=1;fixedSize=1;" vertex="1" parent="1">
          <mxGeometry x="580" y="1020" width="120" height="60" as="geometry" />
        </mxCell>
        <mxCell id="qbVCxpg8kqREcViFkMym-37" style="edgeStyle=orthogonalEdgeStyle;rounded=0;orthogonalLoop=1;jettySize=auto;html=1;entryX=0.5;entryY=0;entryDx=0;entryDy=0;" edge="1" parent="1" source="qbVCxpg8kqREcViFkMym-25" target="qbVCxpg8kqREcViFkMym-28">
          <mxGeometry relative="1" as="geometry" />
        </mxCell>
        <mxCell id="qbVCxpg8kqREcViFkMym-67" value="not on schedule" style="edgeLabel;html=1;align=center;verticalAlign=middle;resizable=0;points=[];" vertex="1" connectable="0" parent="qbVCxpg8kqREcViFkMym-37">
          <mxGeometry x="0.2667" y="3" relative="1" as="geometry">
            <mxPoint as="offset" />
          </mxGeometry>
        </mxCell>
        <mxCell id="qbVCxpg8kqREcViFkMym-50" style="edgeStyle=orthogonalEdgeStyle;rounded=0;orthogonalLoop=1;jettySize=auto;html=1;entryX=0.5;entryY=0;entryDx=0;entryDy=0;" edge="1" parent="1" source="qbVCxpg8kqREcViFkMym-25" target="qbVCxpg8kqREcViFkMym-29">
          <mxGeometry relative="1" as="geometry" />
        </mxCell>
        <mxCell id="qbVCxpg8kqREcViFkMym-66" value="On schedule of this room" style="edgeLabel;html=1;align=center;verticalAlign=middle;resizable=0;points=[];" vertex="1" connectable="0" parent="qbVCxpg8kqREcViFkMym-50">
          <mxGeometry x="-0.3262" y="1" relative="1" as="geometry">
            <mxPoint as="offset" />
          </mxGeometry>
        </mxCell>
        <mxCell id="qbVCxpg8kqREcViFkMym-25" value="check training schedule" style="rhombus;whiteSpace=wrap;html=1;" vertex="1" parent="1">
          <mxGeometry x="200" y="630" width="130" height="80" as="geometry" />
        </mxCell>
        <mxCell id="qbVCxpg8kqREcViFkMym-27" value="User hit Weight Only" style="rounded=0;whiteSpace=wrap;html=1;" vertex="1" parent="1">
          <mxGeometry x="205" y="830" width="120" height="60" as="geometry" />
        </mxCell>
        <mxCell id="qbVCxpg8kqREcViFkMym-38" style="edgeStyle=orthogonalEdgeStyle;rounded=0;orthogonalLoop=1;jettySize=auto;html=1;entryX=0.5;entryY=0;entryDx=0;entryDy=0;" edge="1" parent="1" source="qbVCxpg8kqREcViFkMym-28" target="qbVCxpg8kqREcViFkMym-27">
          <mxGeometry relative="1" as="geometry" />
        </mxCell>
        <mxCell id="qbVCxpg8kqREcViFkMym-28" value="Weight-Only Option" style="rounded=0;whiteSpace=wrap;html=1;" vertex="1" parent="1">
          <mxGeometry x="205" y="740" width="120" height="60" as="geometry" />
        </mxCell>
        <mxCell id="qbVCxpg8kqREcViFkMym-51" style="edgeStyle=orthogonalEdgeStyle;rounded=0;orthogonalLoop=1;jettySize=auto;html=1;entryX=0.5;entryY=0;entryDx=0;entryDy=0;" edge="1" parent="1" source="qbVCxpg8kqREcViFkMym-29" target="qbVCxpg8kqREcViFkMym-31">
          <mxGeometry relative="1" as="geometry" />
        </mxCell>
        <mxCell id="qbVCxpg8kqREcViFkMym-29" value="RUN/&lt;div&gt;Weight-only option&lt;/div&gt;" style="rounded=0;whiteSpace=wrap;html=1;" vertex="1" parent="1">
          <mxGeometry x="403" y="740" width="120" height="60" as="geometry" />
        </mxCell>
        <mxCell id="qbVCxpg8kqREcViFkMym-52" style="edgeStyle=orthogonalEdgeStyle;rounded=0;orthogonalLoop=1;jettySize=auto;html=1;entryX=0.5;entryY=0;entryDx=0;entryDy=0;" edge="1" parent="1" source="qbVCxpg8kqREcViFkMym-31" target="qbVCxpg8kqREcViFkMym-32">
          <mxGeometry relative="1" as="geometry" />
        </mxCell>
        <mxCell id="qbVCxpg8kqREcViFkMym-70" value="RUN" style="edgeLabel;html=1;align=center;verticalAlign=middle;resizable=0;points=[];" vertex="1" connectable="0" parent="qbVCxpg8kqREcViFkMym-52">
          <mxGeometry x="0.5833" relative="1" as="geometry">
            <mxPoint as="offset" />
          </mxGeometry>
        </mxCell>
        <mxCell id="qbVCxpg8kqREcViFkMym-68" style="edgeStyle=orthogonalEdgeStyle;rounded=0;orthogonalLoop=1;jettySize=auto;html=1;entryX=0.5;entryY=0;entryDx=0;entryDy=0;" edge="1" parent="1" source="qbVCxpg8kqREcViFkMym-31" target="qbVCxpg8kqREcViFkMym-20">
          <mxGeometry relative="1" as="geometry">
            <Array as="points">
              <mxPoint x="350" y="860" />
              <mxPoint x="350" y="910" />
            </Array>
          </mxGeometry>
        </mxCell>
        <mxCell id="qbVCxpg8kqREcViFkMym-69" value="weight only" style="edgeLabel;html=1;align=center;verticalAlign=middle;resizable=0;points=[];" vertex="1" connectable="0" parent="qbVCxpg8kqREcViFkMym-68">
          <mxGeometry x="-0.4095" y="2" relative="1" as="geometry">
            <mxPoint x="-22" y="28" as="offset" />
          </mxGeometry>
        </mxCell>
        <mxCell id="qbVCxpg8kqREcViFkMym-31" value="RUN/Weight_only" style="rhombus;whiteSpace=wrap;html=1;" vertex="1" parent="1">
          <mxGeometry x="390" y="820" width="146" height="80" as="geometry" />
        </mxCell>
        <mxCell id="qbVCxpg8kqREcViFkMym-53" style="edgeStyle=orthogonalEdgeStyle;rounded=0;orthogonalLoop=1;jettySize=auto;html=1;" edge="1" parent="1" source="qbVCxpg8kqREcViFkMym-32" target="qbVCxpg8kqREcViFkMym-33">
          <mxGeometry relative="1" as="geometry" />
        </mxCell>
        <mxCell id="qbVCxpg8kqREcViFkMym-62" value="Not Stable" style="edgeLabel;html=1;align=center;verticalAlign=middle;resizable=0;points=[];" vertex="1" connectable="0" parent="qbVCxpg8kqREcViFkMym-53">
          <mxGeometry x="0.6667" relative="1" as="geometry">
            <mxPoint as="offset" />
          </mxGeometry>
        </mxCell>
        <mxCell id="qbVCxpg8kqREcViFkMym-57" style="edgeStyle=orthogonalEdgeStyle;rounded=0;orthogonalLoop=1;jettySize=auto;html=1;" edge="1" parent="1" source="qbVCxpg8kqREcViFkMym-32" target="qbVCxpg8kqREcViFkMym-22">
          <mxGeometry relative="1" as="geometry" />
        </mxCell>
        <mxCell id="qbVCxpg8kqREcViFkMym-71" value="Reach stable threshold" style="edgeLabel;html=1;align=center;verticalAlign=middle;resizable=0;points=[];" vertex="1" connectable="0" parent="qbVCxpg8kqREcViFkMym-57">
          <mxGeometry x="0.0036" y="-2" relative="1" as="geometry">
            <mxPoint x="-25" y="-12" as="offset" />
          </mxGeometry>
        </mxCell>
        <mxCell id="qbVCxpg8kqREcViFkMym-58" style="edgeStyle=orthogonalEdgeStyle;rounded=0;orthogonalLoop=1;jettySize=auto;html=1;entryX=0;entryY=0.5;entryDx=0;entryDy=0;" edge="1" parent="1" source="qbVCxpg8kqREcViFkMym-32" target="qbVCxpg8kqREcViFkMym-29">
          <mxGeometry relative="1" as="geometry">
            <Array as="points">
              <mxPoint x="380" y="960" />
              <mxPoint x="380" y="770" />
            </Array>
          </mxGeometry>
        </mxCell>
        <mxCell id="qbVCxpg8kqREcViFkMym-32" value="stable scale reading?" style="rhombus;whiteSpace=wrap;html=1;" vertex="1" parent="1">
          <mxGeometry x="396.5" y="920" width="133" height="80" as="geometry" />
        </mxCell>
        <mxCell id="qbVCxpg8kqREcViFkMym-54" style="edgeStyle=orthogonalEdgeStyle;rounded=0;orthogonalLoop=1;jettySize=auto;html=1;entryX=0.5;entryY=0;entryDx=0;entryDy=0;" edge="1" parent="1" source="qbVCxpg8kqREcViFkMym-33" target="qbVCxpg8kqREcViFkMym-32">
          <mxGeometry relative="1" as="geometry">
            <Array as="points">
              <mxPoint x="570" y="1050" />
              <mxPoint x="570" y="920" />
            </Array>
          </mxGeometry>
        </mxCell>
        <mxCell id="qbVCxpg8kqREcViFkMym-33" value="re-read from scale" style="rounded=0;whiteSpace=wrap;html=1;" vertex="1" parent="1">
          <mxGeometry x="403" y="1020" width="120" height="60" as="geometry" />
        </mxCell>
        <mxCell id="qbVCxpg8kqREcViFkMym-48" style="edgeStyle=orthogonalEdgeStyle;rounded=0;orthogonalLoop=1;jettySize=auto;html=1;entryX=0;entryY=0.5;entryDx=0;entryDy=0;" edge="1" parent="1" source="qbVCxpg8kqREcViFkMym-34" target="qbVCxpg8kqREcViFkMym-45">
          <mxGeometry relative="1" as="geometry">
            <Array as="points">
              <mxPoint x="50" y="1050" />
              <mxPoint x="50" y="480" />
            </Array>
          </mxGeometry>
        </mxCell>
        <mxCell id="qbVCxpg8kqREcViFkMym-34" value="Upload weight" style="shape=parallelogram;perimeter=parallelogramPerimeter;whiteSpace=wrap;html=1;fixedSize=1;" vertex="1" parent="1">
          <mxGeometry x="60" y="1020" width="120" height="60" as="geometry" />
        </mxCell>
        <mxCell id="qbVCxpg8kqREcViFkMym-36" style="edgeStyle=orthogonalEdgeStyle;rounded=0;orthogonalLoop=1;jettySize=auto;html=1;entryX=0.503;entryY=0.026;entryDx=0;entryDy=0;entryPerimeter=0;" edge="1" parent="1" source="qbVCxpg8kqREcViFkMym-18" target="qbVCxpg8kqREcViFkMym-25">
          <mxGeometry relative="1" as="geometry" />
        </mxCell>
        <mxCell id="qbVCxpg8kqREcViFkMym-39" style="edgeStyle=orthogonalEdgeStyle;rounded=0;orthogonalLoop=1;jettySize=auto;html=1;entryX=0.5;entryY=-0.033;entryDx=0;entryDy=0;entryPerimeter=0;" edge="1" parent="1" source="qbVCxpg8kqREcViFkMym-27" target="qbVCxpg8kqREcViFkMym-20">
          <mxGeometry relative="1" as="geometry" />
        </mxCell>
        <mxCell id="qbVCxpg8kqREcViFkMym-40" style="edgeStyle=orthogonalEdgeStyle;rounded=0;orthogonalLoop=1;jettySize=auto;html=1;entryX=0.498;entryY=0.036;entryDx=0;entryDy=0;entryPerimeter=0;" edge="1" parent="1" source="qbVCxpg8kqREcViFkMym-20" target="qbVCxpg8kqREcViFkMym-19">
          <mxGeometry relative="1" as="geometry" />
        </mxCell>
        <mxCell id="qbVCxpg8kqREcViFkMym-59" value="Not stable" style="edgeLabel;html=1;align=center;verticalAlign=middle;resizable=0;points=[];" vertex="1" connectable="0" parent="qbVCxpg8kqREcViFkMym-40">
          <mxGeometry x="-0.2782" y="3" relative="1" as="geometry">
            <mxPoint y="2" as="offset" />
          </mxGeometry>
        </mxCell>
        <mxCell id="qbVCxpg8kqREcViFkMym-42" style="edgeStyle=orthogonalEdgeStyle;rounded=0;orthogonalLoop=1;jettySize=auto;html=1;entryX=0.585;entryY=0.026;entryDx=0;entryDy=0;entryPerimeter=0;" edge="1" parent="1" source="qbVCxpg8kqREcViFkMym-20" target="qbVCxpg8kqREcViFkMym-34">
          <mxGeometry relative="1" as="geometry" />
        </mxCell>
        <mxCell id="qbVCxpg8kqREcViFkMym-47" style="edgeStyle=orthogonalEdgeStyle;rounded=0;orthogonalLoop=1;jettySize=auto;html=1;entryX=0.5;entryY=0;entryDx=0;entryDy=0;" edge="1" parent="1" source="qbVCxpg8kqREcViFkMym-45" target="qbVCxpg8kqREcViFkMym-18">
          <mxGeometry relative="1" as="geometry" />
        </mxCell>
        <mxCell id="qbVCxpg8kqREcViFkMym-45" value="Idle" style="rounded=0;whiteSpace=wrap;html=1;" vertex="1" parent="1">
          <mxGeometry x="204" y="450" width="120" height="60" as="geometry" />
        </mxCell>
        <mxCell id="qbVCxpg8kqREcViFkMym-60" value="Reach stable threshold" style="text;html=1;align=center;verticalAlign=middle;resizable=0;points=[];autosize=1;strokeColor=none;fillColor=none;" vertex="1" parent="1">
          <mxGeometry x="60" y="928" width="150" height="30" as="geometry" />
        </mxCell>
        <mxCell id="qbVCxpg8kqREcViFkMym-64" value="Finish this animal" style="text;html=1;align=center;verticalAlign=middle;resizable=0;points=[];autosize=1;strokeColor=none;fillColor=none;" vertex="1" parent="1">
          <mxGeometry x="580" y="450" width="120" height="30" as="geometry" />
        </mxCell>
        <mxCell id="qbVCxpg8kqREcViFkMym-65" value="Finish this animal" style="text;html=1;align=center;verticalAlign=middle;resizable=0;points=[];autosize=1;strokeColor=none;fillColor=none;" vertex="1" parent="1">
          <mxGeometry x="40" y="450" width="120" height="30" as="geometry" />
        </mxCell>
        <mxCell id="qbVCxpg8kqREcViFkMym-72" value="" style="endArrow=classic;html=1;rounded=0;" edge="1" parent="1">
          <mxGeometry width="50" height="50" relative="1" as="geometry">
            <mxPoint x="80" y="1440" as="sourcePoint" />
            <mxPoint x="80" y="1210" as="targetPoint" />
          </mxGeometry>
        </mxCell>
        <mxCell id="qbVCxpg8kqREcViFkMym-73" value="" style="endArrow=classic;html=1;rounded=0;" edge="1" parent="1">
          <mxGeometry width="50" height="50" relative="1" as="geometry">
            <mxPoint x="80" y="1440" as="sourcePoint" />
            <mxPoint x="400" y="1440" as="targetPoint" />
          </mxGeometry>
        </mxCell>
        <mxCell id="qbVCxpg8kqREcViFkMym-74" value="" style="endArrow=none;html=1;rounded=0;" edge="1" parent="1">
          <mxGeometry width="50" height="50" relative="1" as="geometry">
            <mxPoint x="90" y="1440" as="sourcePoint" />
            <mxPoint x="130" y="1300" as="targetPoint" />
          </mxGeometry>
        </mxCell>
        <mxCell id="qbVCxpg8kqREcViFkMym-75" value="" style="curved=1;endArrow=none;html=1;rounded=0;endFill=0;" edge="1" parent="1">
          <mxGeometry width="50" height="50" relative="1" as="geometry">
            <mxPoint x="130" y="1300" as="sourcePoint" />
            <mxPoint x="320" y="1270" as="targetPoint" />
            <Array as="points">
              <mxPoint x="150" y="1250" />
              <mxPoint x="180" y="1330" />
              <mxPoint x="210" y="1250" />
              <mxPoint x="220" y="1240" />
              <mxPoint x="240" y="1290" />
              <mxPoint x="270" y="1250" />
              <mxPoint x="290" y="1280" />
            </Array>
          </mxGeometry>
        </mxCell>
        <mxCell id="qbVCxpg8kqREcViFkMym-77" value="Mass Reading Over Time" style="text;html=1;align=center;verticalAlign=middle;resizable=0;points=[];autosize=1;strokeColor=none;fillColor=none;rotation=270;" vertex="1" parent="1">
          <mxGeometry x="-10" y="1330" width="160" height="30" as="geometry" />
        </mxCell>
        <mxCell id="qbVCxpg8kqREcViFkMym-78" value="Time" style="text;html=1;align=center;verticalAlign=middle;resizable=0;points=[];autosize=1;strokeColor=none;fillColor=none;" vertex="1" parent="1">
          <mxGeometry x="205" y="1450" width="50" height="30" as="geometry" />
        </mxCell>
        <mxCell id="qbVCxpg8kqREcViFkMym-79" value="" style="endArrow=none;dashed=1;html=1;rounded=0;" edge="1" parent="1">
          <mxGeometry width="50" height="50" relative="1" as="geometry">
            <mxPoint x="240" y="1280" as="sourcePoint" />
            <mxPoint x="430" y="1280" as="targetPoint" />
          </mxGeometry>
        </mxCell>
        <mxCell id="qbVCxpg8kqREcViFkMym-80" value="" style="endArrow=none;dashed=1;html=1;rounded=0;" edge="1" parent="1">
          <mxGeometry width="50" height="50" relative="1" as="geometry">
            <mxPoint x="240" y="1260" as="sourcePoint" />
            <mxPoint x="430" y="1260" as="targetPoint" />
          </mxGeometry>
        </mxCell>
        <mxCell id="qbVCxpg8kqREcViFkMym-81" value="&amp;lt; 5% flactuation over 500ms (10 samples input)" style="edgeLabel;html=1;align=center;verticalAlign=middle;resizable=0;points=[];" vertex="1" connectable="0" parent="qbVCxpg8kqREcViFkMym-80">
          <mxGeometry x="0.2316" y="1" relative="1" as="geometry">
            <mxPoint x="83" y="-19" as="offset" />
          </mxGeometry>
        </mxCell>
      </root>
    </mxGraphModel>
  </diagram>
</mxfile>
